#tb 0: 71/1000
0,          0,          0,        1,   134724, 0x2ab217de
0,          1,          1,        1,   134724, 0xbf240f9a
0,          2,          2,        1,   134724, 0x020a6010
0,          3,          3,        1,   134724, 0x9a5f9374
0,          4,          4,        1,   134724, 0x1e93a7e9
0,          5,          5,        1,   134724, 0x9e4a4c55
0,          6,          6,        1,   134724, 0x8f9d1bab
0,          7,          7,        1,   134724, 0xb26ac45b
0,          8,          8,        1,   134724, 0xc08706d2
0,          9,          9,        1,   134724, 0x0806b031
0,         10,         10,        1,   134724, 0x234dbb33
0,         11,         11,        1,   134724, 0xe4cbfb2f
0,         12,         12,        1,   134724, 0xf603f3fd
0,         13,         13,        1,   134724, 0x205669d1
0,         14,         14,        1,   134724, 0x7ddbb5e3
0,         15,         15,        1,   134724, 0x8dfbb45a
0,         16,         16,        1,   134724, 0x9632f681
0,         17,         17,        1,   134724, 0x259e462c
0,         18,         18,        1,   134724, 0x14f2bac1
0,         19,         19,        1,   134724, 0xac3de7ed
0,         20,         20,        1,   134724, 0x6b8af396
0,         21,         21,        1,   134724, 0xd1e4bc1c
0,         22,         22,        1,   134724, 0x716d1c73
0,         23,         23,        1,   134724, 0x610956c8
0,         24,         24,        1,   134724, 0x89ff8e86
0,         25,         25,        1,   134724, 0xc3ea6b6f
0,         26,         26,        1,   134724, 0x886688ef
0,         27,         27,        1,   134724, 0xe60fc8c1
0,         28,         28,        1,   134724, 0x22bd3131
0,         29,         29,        1,   134724, 0xb1d74561
0,         30,         30,        1,   134724, 0x61b069bc
0,         31,         31,        1,   134724, 0x50b665c1
0,         32,         32,        1,   134724, 0x027e5144
0,         33,         33,        1,   134724, 0xfe0c31b4
0,         34,         34,        1,   134724, 0x1e7a1f2d
0,         35,         35,        1,   134724, 0x48bff03d
